<?xml version="1.0" encoding="utf-8"?>
<!-- Generator: Adobe Illustrator 19.0.0, SVG Export Plug-In . SVG Version: 6.00 Build 0)  -->
<svg version="1.1" id="Слой_2" xmlns="http://www.w3.org/2000/svg" xmlns:xlink="http://www.w3.org/1999/xlink" x="0px" y="0px"
	 viewBox="-367.6 191.8 201.8 191.3" style="enable-background:new -367.6 191.8 201.8 191.3;" xml:space="preserve">
<style type="text/css">
	.st0{fill:none;stroke:#917D49;stroke-width:2;stroke-miterlimit:10;}
	.st1{fill:none;stroke:#917D49;stroke-miterlimit:10;}
	.st2{fill:#FFFFFF;stroke:#917D49;stroke-width:2;stroke-miterlimit:10;}
	.st3{fill:#FFFFFF;stroke:#917D49;stroke-miterlimit:10;}
	.st4{fill:#917D49;stroke:#917D49;stroke-miterlimit:10;}
</style>
<path class="st0" d="M-485.8,386"/>
<g>
	<path class="st1" d="M-207.7,259h-6.1c-0.4,0-0.8-0.4-0.8-0.8l0,0c0-0.4,0.4-0.8,0.8-0.8h6.1c0.4,0,0.8,0.4,0.8,0.8l0,0
		C-206.9,258.7-207.3,259-207.7,259z"/>
	<g>
		<path class="st0" d="M-378.5,250.1"/>
		<g id="XMLID_11_">
			<g id="XMLID_7_">
				<path id="XMLID_1_" class="st2" d="M-317.3,257.6h-44.1c-1.4,0-2.5-1.1-2.5-2.5v-44c0-1.4,1.1-2.5,2.5-2.5h44
					c1.4,0,2.5,1.1,2.5,2.5v44C-314.8,256.5-316,257.6-317.3,257.6z"/>
				<circle id="XMLID_24_" class="st3" cx="-350.3" cy="222.2" r="6.5"/>
				<circle id="XMLID_23_" class="st3" cx="-328.6" cy="222.2" r="6.5"/>
				<circle id="XMLID_22_" class="st3" cx="-350.3" cy="242.8" r="6.5"/>
				<circle id="XMLID_21_" class="st3" cx="-329" cy="242.8" r="6.5"/>
				<circle id="XMLID_20_" class="st3" cx="-350.3" cy="222.2" r="3.9"/>
				<circle id="XMLID_19_" class="st3" cx="-328.6" cy="222.2" r="3.9"/>
				<circle id="XMLID_18_" class="st3" cx="-350.3" cy="242.8" r="3.9"/>
				<circle id="XMLID_17_" class="st3" cx="-329" cy="242.8" r="3.9"/>
				<line id="XMLID_15_" class="st0" x1="-364" y1="254.8" x2="-315.1" y2="254.8"/>
			</g>
			<path id="XMLID_10_" class="st0" d="M-329.6,259.8h-20.1c-0.3,0-0.6-0.3-0.6-0.6v-0.9c0-0.4,0.3-0.6,0.6-0.6h20.1
				c0.4,0,0.6,0.3,0.6,0.6v0.9C-329,259.6-329.3,259.8-329.6,259.8z"/>
		</g>
		<line class="st0" x1="-218.9" y1="209.3" x2="-218.9" y2="256.6"/>
		<g>
			<rect id="XMLID_12_" x="-311.8" y="209.3" class="st0" width="143" height="47.3"/>
			<path class="st1" d="M-294.2,259h-6.9c-0.5,0-0.9-0.4-0.9-0.8l0,0c0-0.4,0.4-0.8,0.9-0.8h6.9c0.5,0,0.9,0.4,0.9,0.8l0,0
				C-293.3,258.7-293.7,259-294.2,259z"/>
		</g>
		<path class="st0" d="M-182.1,248.2h-23c-2.2,0-4-1.8-4-4v-23c0-2.2,1.8-4,4-4h23c2.2,0,4,1.8,4,4v23
			C-178.1,246.4-179.9,248.2-182.1,248.2z"/>
		<circle class="st1" cx="-202.1" cy="241.8" r="2.8"/>
		<circle class="st4" cx="-202.1" cy="241.8" r="1"/>
		<path class="st1" d="M-189.1,218.6h-9c-0.7,0-1.3-0.6-1.3-1.3l0,0c0-0.7,0.6-1.3,1.3-1.3h9c0.7,0,1.3,0.6,1.3,1.3l0,0
			C-187.8,218-188.4,218.6-189.1,218.6z"/>
		<path class="st1" d="M-193.2,224.8h-0.8c-0.6,0-1-0.4-1-1V217c0-0.6,0.4-1,1-1h0.8c0.6,0,1,0.4,1,1v6.8
			C-192.2,224.3-192.7,224.8-193.2,224.8z"/>
	</g>
	<line class="st0" x1="-366.7" y1="193" x2="-165.9" y2="193"/>
	<g>
		<g id="XMLID_14_">
			<g id="XMLID_9_">
				<path id="XMLID_2_" class="st2" d="M-217.1,317h40.9c4.1,0,7.5,3.4,7.5,7.5v41.6c0,1.1-0.9,1.9-1.9,1.9h-52.1
					c-1,0-1.9-0.8-1.9-1.9v-41.6C-224.6,320.4-221.2,317-217.1,317z"/>
				<line id="XMLID_8_" class="st0" x1="-168.7" y1="326.4" x2="-224.5" y2="326.4"/>
			</g>
			<path id="XMLID_13_" class="st0" d="M-212,315.1h4.4c0.5,0,0.9,0.4,0.9,0.9l0,0c0,0.5-0.4,0.9-0.9,0.9h-4.4
				c-0.5,0-0.9-0.4-0.9-0.9l0,0C-212.9,315.6-212.5,315.1-212,315.1z"/>
		</g>
		<g>
			<rect id="XMLID_3_" x="-364" y="320.1" class="st0" width="90.4" height="47.3"/>
			<path class="st1" d="M-284.8,317.7h6.1c0.4,0,0.8,0.4,0.8,0.8l0,0c0,0.4-0.4,0.8-0.8,0.8h-6.1c-0.4,0-0.8-0.4-0.8-0.8l0,0
				C-285.6,318.1-285.3,317.7-284.8,317.7z"/>
			<rect id="XMLID_5_" x="-273.6" y="320.1" class="st0" width="45.2" height="47.3"/>
			<path class="st1" d="M-241.3,317.7h6.1c0.4,0,0.8,0.4,0.8,0.8l0,0c0,0.4-0.4,0.8-0.8,0.8h-6.1c-0.4,0-0.8-0.4-0.8-0.8l0,0
				C-242.1,318.1-241.8,317.7-241.3,317.7z"/>
		</g>
	</g>
	<line class="st0" x1="-366.7" y1="382" x2="-165.9" y2="382"/>
</g>
</svg>
